<svg version="1.0" xmlns="http://www.w3.org/2000/svg" width="800.000000" height="800.000000" viewBox="0 0 800.000000 800.000000" preserveAspectRatio="xMidYMid meet">
  <metadata>
    <rdf:RDF xmlns:rdf="http://www.w3.org/1999/02/22-rdf-syntax-ns#" xmlns:rdfs="http://www.w3.org/2000/01/rdf-schema#" xmlns:dc="http://purl.org/dc/elements/1.1/">
      <rdf:Description dc:format="image/svg+xml" dc:Label="1" dc:ContentProducer="001191330110MACRLGPT8B00000" dc:ProduceID="458373615" dc:ReservedCode1="wp9/Us2FVsCfZipWUJY8Utq7yJyGBPqGEu8so3Rq/Kk=" dc:ContentPropagator="001191330110MACRLGPT8B00000" dc:PropagateID="458373615" dc:ReservedCode2="wp9/Us2FVsCfZipWUJY8Utq7yJyGBPqGEu8so3Rq/Kk="/>
    </rdf:RDF>
  </metadata>
  <g transform="translate(0.000000,800.000000) scale(0.100000,-0.100000)" fill="#000000" stroke="none">
    <path d="M2290 5688 c-124 -34 -151 -44 -201 -74 -120 -72 -224 -220 -249 -355 -11 -56 -14 -1087 -4 -1114 8 -19 55 -45 83 -45 11 0 33 11 48 24 l28 24 5 554 5 553 27 55 c33 68 105 139 178 177 l55 28 580 0 c545 0 582 -1 617 -19 58 -28 108 -83 167 -181 30 -50 65 -105 78 -122 l24 -33 827 0 827 0 51 -24 c87 -40 144 -127 144 -220 l0 -36 -1495 0 c-1047 0 -1510 -3 -1547 -11 -97 -20 -188 -92 -224 -176 -16 -38 -46 -206 -124 -693 -41 -259 -85 -525 -140 -863 -17 -103 -37 -204 -44 -224 -11 -33 -13 -25 -12 86 1 122 1 123 -27 147 -37 32 -81 31 -113 -1 l-25 -25 3 -248 3 -247 32 -68 c42 -89 116 -166 201 -208 l67 -34 1730 0 1730 0 57 27 c66 31 134 96 165 159 28 58 28 54 294 1639 32 195 59 367 59 382 0 15 5 28 10 28 6 0 10 8 10 18 0 14 -2 15 -10 2 -7 -11 -10 -3 -10 30 -1 95 -69 193 -167 242 -57 28 -79 33 -158 36 l-92 4 -10 77 c-6 44 -22 101 -38 136 -33 70 -113 153 -177 183 -107 52 -105 52 -938 52 l-776 0 -43 75 c-51 90 -137 186 -199 222 -24 15 -74 36 -111 47 -63 20 -90 21 -601 23 -318 0 -549 -3 -570 -9z m3641 -998 c28 -15 46 -34 61 -65 l22 -44 -23 -143 c-13 -79 -33 -204 -47 -278 -13 -74 -48 -286 -79 -470 -53 -317 -158 -939 -176 -1043 -11 -65 -36 -106 -88 -142 l-43 -30 -1651 -3 c-1857 -3 -1715 -9 -1757 71 l-22 42 65 395 c36 217 81 494 101 615 19 121 53 330 75 465 22 135 50 307 61 384 24 153 31 180 63 215 49 53 -42 50 1740 51 1648 0 1658 0 1698 -20z"/>
    <path d="M3574 4077 c-22 -19 -27 -32 -26 -62 1 -35 12 -49 109 -149 60 -60 130 -130 156 -155 26 -24 61 -61 77 -81 l29 -36 -175 -175 c-217 -216 -230 -237 -180 -296 19 -22 32 -28 64 -28 40 0 46 6 224 188 101 103 188 187 194 187 6 0 89 -80 184 -177 183 -187 201 -202 238 -203 35 0 82 52 82 91 0 29 -21 54 -185 219 -102 102 -185 191 -185 197 0 6 80 93 178 193 97 100 181 192 186 205 12 31 -8 79 -40 94 -59 27 -68 21 -264 -174 -102 -102 -190 -185 -195 -185 -5 0 -93 83 -195 185 -162 161 -190 185 -218 185 -18 0 -42 -10 -58 -23z"/>
  </g>
</svg>